<svg xmlns="http://www.w3.org/2000/svg" xmlns:xlink="http://www.w3.org/1999/xlink" width="1240" zoomAndPan="magnify" viewBox="0 0 930 1310.999944" height="1748" preserveAspectRatio="xMidYMid meet" version="1.0"><path fill="#ab0a0a" d="M 873.273438 685.597656 C 871.503906 683.375 872.96875 680.574219 875.109375 679.269531 C 879.890625 673.640625 883.488281 666.847656 887.046875 660.921875 C 907.308594 620.980469 887.492188 585.796875 850.707031 566.089844 C 848.875 565.175781 847.027344 564.296875 845.125 563.519531 C 842.898438 562.613281 840.039062 561.875 839.3125 559.25 C 838.519531 556.46875 840.867188 554.390625 843.027344 553.160156 C 869.84375 537.121094 896.496094 510.898438 892.148438 477.210938 C 889.992188 461.390625 881.394531 446.28125 868.265625 437.050781 C 865.125 435 861.785156 433.28125 858.320312 431.851562 C 854.382812 430.332031 847.609375 427.8125 849.761719 422.355469 C 850.628906 420.421875 852.15625 418.96875 853.660156 417.515625 C 859.441406 411.925781 865.339844 406.457031 870.800781 400.546875 C 879.511719 390.960938 886.035156 378.933594 887.046875 365.859375 C 888.160156 347.140625 881.214844 327.574219 867.273438 314.792969 C 864.359375 312.21875 861.195312 309.949219 857.703125 308.21875 C 854.476562 306.753906 849.738281 304.84375 850.703125 300.449219 C 851.675781 296.800781 855.359375 294.875 857.839844 292.300781 C 862.734375 287.746094 867.488281 283.066406 871.941406 278.078125 C 884.246094 264.347656 890.300781 244.910156 886.789062 226.695312 C 883.546875 212.09375 873.839844 198.882812 860.75 191.640625 C 855.308594 188.464844 848.878906 187.574219 843.394531 184.664062 C 839.460938 182.019531 840.996094 177.445312 843.976562 174.777344 C 865.179688 152.523438 905.113281 118.789062 879.5 86.527344 C 869.367188 74.90625 854.261719 68.21875 838.800781 69.902344 C 817.015625 71.296875 796.800781 80.269531 777.992188 90.785156 C 774.878906 92.664062 770.023438 93.550781 767.824219 89.894531 C 763.527344 77.167969 757.984375 62.757812 744.851562 56.835938 C 732.671875 50.292969 718.597656 52.21875 706.148438 56.765625 C 697.074219 59.796875 687.800781 64.199219 680.039062 69.636719 C 672.417969 75.050781 665.0625 80.824219 658.113281 86.816406 C 653.90625 90.570312 649.882812 94.515625 645.726562 98.316406 C 642.359375 101.972656 636.902344 103.753906 633.734375 98.871094 C 624.265625 86.140625 611.152344 74.90625 595.316406 71.753906 C 570.464844 69.085938 548.460938 85.972656 530.425781 101.035156 C 526.34375 104.378906 522.894531 108.636719 518.171875 111.066406 C 516.808594 111.714844 515.140625 111.667969 513.738281 111.210938 C 510.359375 109.890625 508.125 106.832031 505.457031 104.5 C 501.441406 101.035156 497.277344 97.738281 492.941406 94.660156 C 483.523438 88.386719 472.519531 85.527344 461.226562 84.523438 C 460.761719 85.148438 460.28125 85.800781 459.769531 86.40625 C 461.777344 89.226562 463.578125 92.203125 465.464844 95.035156 C 469.199219 100.566406 473.34375 105.765625 477.75 110.769531 C 488.207031 122.628906 501.339844 131.84375 515.949219 137.835938 C 533.667969 145.222656 553.320312 147.148438 570.109375 156.914062 C 575.726562 159.828125 581.238281 163 586.601562 166.371094 C 588.367188 167.476562 589.054688 169.761719 587.976562 171.613281 C 586.941406 173.371094 584.488281 174.09375 582.726562 172.984375 C 571.890625 166.296875 560.847656 160.089844 548.800781 155.976562 C 540.941406 153.496094 532.898438 151.71875 525.019531 149.285156 C 490.324219 138.6875 471.925781 119.082031 452.773438 90.1875 C 444.148438 100.957031 431.664062 107.507812 420.238281 114.90625 C 410.910156 120.824219 401.984375 127.441406 394.183594 135.285156 C 384.074219 145.4375 375.890625 156.554688 367.300781 167.886719 C 365.171875 170.722656 363.027344 173.539062 361.019531 176.472656 C 359.808594 178.878906 357.375 181.40625 354.578125 179.699219 C 352.816406 178.6875 352.074219 176.234375 353.199219 174.453125 C 357.695312 167.546875 362.839844 161.101562 367.804688 154.507812 C 377.648438 141.515625 388.273438 128.886719 401.210938 118.851562 C 415.15625 107.324219 433.070312 100.574219 445.246094 87.03125 C 436.527344 84.761719 416.414062 79.175781 410.5 78.183594 C 383.195312 72.433594 347 84.53125 324.609375 98.652344 C 320.589844 100.410156 315.867188 106.375 311.25 103.992188 C 308.328125 101.878906 306.675781 98.484375 304.167969 95.933594 C 300.3125 91.796875 296.214844 87.921875 291.996094 84.167969 C 277.667969 72.042969 252.535156 61.121094 234.035156 56.910156 C 212.371094 51.691406 197.8125 58.5 186.03125 76.953125 C 183.527344 80.296875 182.085938 84.53125 179.140625 87.464844 C 177.496094 88.714844 175.230469 88.910156 173.359375 88.019531 C 167.894531 85.445312 162.953125 81.8125 157.488281 79.164062 C 141.230469 71.054688 122.867188 68.410156 104.84375 68.773438 C 87.792969 69.179688 69.558594 69.710938 55.976562 81.042969 C 37.929688 97.523438 37.234375 125.863281 48.449219 146.433594 C 54.453125 158.800781 64.546875 168.183594 74.445312 177.351562 C 78.765625 184.375 66.863281 188.203125 63.171875 192.460938 C 52.976562 201.648438 46.664062 214.980469 45.589844 228.621094 C 43.332031 257.492188 64.179688 280.050781 85.871094 296.089844 C 93.945312 302.523438 105.25 307.164062 91.976562 316.273438 C 81.277344 324.117188 70.320312 332.09375 62.976562 343.375 C 49.820312 362.886719 43.867188 387.796875 48.027344 411.058594 C 52.117188 431.796875 67.578125 447.835938 83.261719 460.785156 C 86.273438 463.742188 91.828125 466.195312 90.847656 471.207031 C 90.148438 474.003906 87.777344 475.859375 85.707031 477.679688 C 82.21875 480.816406 79.316406 483.214844 76.101562 486.449219 C 53.730469 507.027344 42.777344 536.835938 41.167969 566.75 C 39.589844 591.132812 40.554688 605.664062 55.304688 625.03125 C 60.5625 631.9375 66.234375 638.578125 71.109375 645.761719 C 75.632812 651.578125 76.957031 656.054688 71.171875 661.328125 C 63.378906 669.617188 55.113281 677.640625 49.386719 687.566406 C 27.046875 724.605469 35.25 762.492188 78.472656 776.539062 C 96.03125 781.316406 82.261719 792.785156 76.683594 801.472656 C 58.925781 825.835938 37.003906 861.757812 37.417969 892.511719 C 37.199219 917.660156 47.417969 943.445312 68.167969 958.46875 C 80.214844 967.617188 94.242188 973.03125 107.621094 979.589844 C 111.976562 981.867188 112.367188 986.636719 108.832031 989.765625 C 103.394531 994.898438 97.585938 999.410156 92.289062 1004.636719 C 73.945312 1022.515625 59.628906 1044.8125 52.925781 1069.636719 C 48.691406 1084.507812 46.679688 1100.769531 52.335938 1115.542969 C 60.132812 1136.101562 80.84375 1147.019531 98.925781 1157.285156 C 102.628906 1158.59375 105.023438 1162.3125 101.972656 1165.527344 C 100.445312 1166.925781 98.691406 1168.050781 97.097656 1169.363281 C 93.78125 1172 90.699219 1174.910156 87.667969 1177.875 C 65.144531 1200.695312 43.449219 1242.210938 66.269531 1271.300781 C 75.203125 1281.273438 88.679688 1285.773438 101.695312 1287.070312 C 122.265625 1289.375 143.136719 1282.949219 160.371094 1271.933594 C 170.457031 1265.492188 178.835938 1256.871094 187.414062 1248.613281 C 189.5625 1246.511719 191.683594 1244.382812 193.839844 1242.277344 C 197.480469 1238.804688 201.917969 1233.484375 207.589844 1234.976562 C 213.296875 1236.855469 216.707031 1242.378906 220.777344 1246.464844 C 227.140625 1253.601562 233.890625 1260.417969 241.441406 1266.308594 C 269.191406 1287.761719 307.09375 1302.671875 338.390625 1279.402344 C 346.941406 1273.355469 356.183594 1266.824219 363.304688 1259.234375 C 365.65625 1256.859375 367.199219 1253.648438 369.980469 1251.765625 C 374.121094 1249.339844 378.113281 1253.203125 380.835938 1255.976562 C 385.953125 1261.347656 390.90625 1266.902344 396.46875 1271.832031 C 422.851562 1295.753906 463.023438 1305.269531 496.558594 1291.964844 C 515.925781 1284.40625 528.644531 1267 538.777344 1249.636719 C 541.628906 1245.074219 544.167969 1240.332031 546.839844 1235.664062 C 548.441406 1232.976562 550.46875 1229.9375 553.964844 1229.9375 C 557.375 1229.9375 559.789062 1233.09375 561.824219 1235.414062 C 563.5 1237.3125 565.191406 1239.199219 566.960938 1241.015625 C 574.082031 1248.351562 582.371094 1254.414062 590.824219 1260.109375 C 615.253906 1276.253906 643.695312 1290.226562 673.730469 1287.578125 C 702.683594 1284.703125 727.578125 1264.449219 739.566406 1238.382812 C 741.226562 1233.414062 745.625 1231.351562 749.796875 1235.011719 C 760.390625 1244.273438 773.582031 1249.707031 786.753906 1254.238281 C 799.753906 1258.402344 812.882812 1262.835938 826.539062 1264.035156 C 844.097656 1265.753906 859.503906 1254.4375 868.835938 1240.378906 C 878.246094 1227.308594 882.617188 1210.734375 878.894531 1194.867188 C 872.351562 1164.253906 846.265625 1144.25 825.738281 1122.722656 C 823.265625 1118.515625 827.40625 1115.53125 831.363281 1116.410156 C 843.015625 1117.175781 853.339844 1110.171875 861.910156 1103.011719 C 875.761719 1091.523438 882.804688 1073.5625 882.730469 1055.78125 C 883.0625 1036.71875 875.363281 1018.230469 862.308594 1004.4375 C 855.988281 996.664062 847.488281 990.53125 842.089844 982.109375 C 839.640625 974.4375 850.34375 975.183594 855.003906 973.988281 C 865.597656 971.617188 875.308594 966.242188 883.199219 958.96875 C 903.421875 940.773438 911.097656 909.589844 901.050781 884.253906 C 891.992188 863.324219 872.53125 849.582031 855.007812 836.0625 C 853.039062 834.457031 850.054688 833.433594 849.644531 830.59375 C 849.335938 828.875 850.445312 827.25 851.953125 826.546875 C 871.804688 823.015625 887.941406 807.480469 898.386719 790.875 C 915.699219 760.929688 915.417969 722.796875 892.289062 695.933594 C 890.71875 693.800781 887.832031 691.75 885.988281 690.222656 C 883.910156 688.808594 880.597656 687.65625 879.894531 685.382812 C 877.789062 687.203125 875.527344 687.820312 873.277344 685.597656 Z M 483.582031 81.316406 C 495.902344 85.828125 506.308594 94.695312 515.804688 103.65625 C 556.335938 66.917969 598.332031 41.078125 639.460938 93.578125 C 654.460938 79.8125 669.550781 65.570312 687.757812 56.140625 C 699.578125 50.367188 712.390625 45.671875 725.601562 44.808594 C 750.535156 44.351562 767.65625 61.046875 773.828125 84.289062 C 800.117188 69.707031 839.632812 52.578125 868.601562 68.21875 C 881.511719 75.339844 893.0625 87.226562 894.917969 102.40625 C 899.457031 133.15625 869.640625 159.089844 850.25 179.300781 C 880.921875 186.878906 901.4375 219.503906 894.050781 250.371094 C 890.511719 271.378906 875.289062 287.226562 859.882812 300.765625 C 886.160156 313.492188 899.078125 346.539062 893.472656 374.417969 C 889.160156 395.046875 873.175781 409.746094 858.421875 423.558594 C 886.898438 433.351562 904.515625 465.292969 899.375 494.675781 C 894.898438 522.40625 873.265625 543.128906 850.4375 557.460938 C 886.566406 574.871094 911.867188 608.617188 899.71875 649.804688 C 897.316406 658.53125 893.042969 666.585938 888.089844 674.101562 C 887.007812 675.480469 885.554688 678.089844 883.859375 680.601562 C 884.441406 680.640625 885.023438 680.796875 885.566406 681.082031 C 899.113281 687.964844 906.761719 702.109375 912.761719 715.453125 C 929.996094 759.285156 906.199219 814.507812 862.390625 831.960938 C 880.734375 846.308594 901.019531 861.421875 909.167969 884.125 C 923.988281 925.550781 896.222656 976.222656 851.820312 982.339844 C 866.667969 997.3125 882.613281 1012.988281 887.6875 1034.203125 C 893.6875 1057.246094 890.015625 1083.875 873.824219 1102.027344 C 864.203125 1112.324219 851.914062 1121.75 837.636719 1123.851562 C 856.152344 1142.234375 876.722656 1160.863281 884.648438 1186.535156 C 888.730469 1199.777344 889.238281 1214.410156 884.257812 1227.480469 C 878.039062 1243.300781 867.117188 1258.027344 852.070312 1266.359375 C 836.917969 1274.824219 818.960938 1271.792969 803.070312 1267.253906 C 783.214844 1261.453125 762.484375 1255.449219 746.285156 1242.039062 C 729.496094 1278.746094 689.949219 1302.140625 649.636719 1294.113281 C 616.203125 1288.15625 576.214844 1264.113281 554.167969 1238.398438 C 530.769531 1281.4375 509.753906 1308.136719 456.492188 1305.410156 C 438.078125 1304 419.984375 1297.761719 404.496094 1287.75 C 392.554688 1280.210938 382.949219 1269.140625 373.179688 1259.253906 C 365.851562 1269.160156 355.714844 1276.398438 345.824219 1283.550781 C 310.996094 1311 270.125 1297.660156 237.933594 1273.265625 C 229.457031 1266.921875 222.011719 1259.339844 214.972656 1251.464844 C 212.496094 1248.734375 210.066406 1245.949219 207.332031 1243.457031 C 206.589844 1242.933594 205.726562 1241.992188 204.824219 1242.730469 C 191.175781 1254.457031 179.664062 1268.839844 164.296875 1278.523438 C 140.722656 1293.695312 110.636719 1300.046875 83.609375 1291.054688 C 52.808594 1281.421875 43.601562 1251.828125 51.894531 1222.675781 C 58.753906 1199.046875 73.921875 1178.160156 93.023438 1162.839844 C 71.882812 1151.105469 48.417969 1136.390625 42.960938 1111.070312 C 38.617188 1093.191406 42.867188 1074.621094 48.703125 1057.578125 C 58.660156 1028.660156 78.859375 1004.601562 102.261719 985.425781 C 87.03125 978.441406 71.238281 971.738281 58.554688 960.527344 C 37.269531 942.292969 28.128906 913.300781 29.9375 885.847656 C 30.695312 872.097656 35.449219 859.015625 41.09375 846.578125 C 50.414062 824.109375 65.058594 804.671875 78.996094 784.964844 C 42.550781 773.707031 21.152344 745.035156 32.617188 706.691406 C 36.460938 694.363281 42.363281 682.621094 50.5 672.566406 C 55.628906 665.957031 61.957031 660.421875 67.324219 654.046875 C 62.425781 646.074219 56.367188 638.890625 50.625 631.5 C 25.125 598.699219 27.65625 562.488281 43.457031 520.515625 C 51.265625 500.285156 66.296875 484.039062 82.578125 470.171875 C 62.175781 453.949219 41.984375 433.304688 39.492188 406.039062 C 37.167969 381.246094 44.195312 355.34375 59.242188 335.449219 C 67.285156 324.320312 78.828125 316.703125 89.542969 308.425781 C 70.996094 294.765625 51.769531 279.507812 42.691406 257.660156 C 31.195312 229.800781 40.71875 196.453125 66.472656 180.238281 C 53.539062 169.289062 42.675781 155.578125 37.0625 139.457031 C 28.839844 116.410156 33.902344 87.609375 54.300781 72.597656 C 71.113281 61.046875 92.667969 61.09375 112.316406 61.144531 C 134.625 61.289062 156.398438 68.050781 175 80.296875 C 182.890625 66.339844 193.898438 52.097656 210.371094 48.511719 C 245.871094 42.570312 292.621094 69.996094 314.207031 96.125 C 332.601562 84.722656 369.539062 68.921875 392 68.921875 C 393.621094 68.855469 395.515625 68.90625 397.621094 69.054688 C 388.488281 64.148438 380.453125 57.609375 374.570312 48.285156 C 368.511719 37.941406 367.492188 19.800781 380.699219 14.699219 C 391.710938 11.332031 403.179688 17.539062 412.398438 23.167969 C 431.628906 36.304688 445.894531 55.722656 458.238281 75.183594 C 458.457031 75.183594 458.675781 75.207031 458.898438 75.234375 C 475.203125 55.335938 493.363281 36.617188 515.273438 22.878906 C 532.226562 12.171875 563.011719 0 574.4375 23.867188 C 582.164062 46.171875 551.03125 61.976562 534.445312 69.265625 C 518.308594 76.246094 501.015625 79.535156 483.582031 81.316406 Z M 425.355469 71.550781 C 433.945312 73.980469 442.742188 75.570312 451.226562 78.382812 C 439.582031 60.339844 426.550781 42.535156 408.890625 30.027344 C 401.28125 25.527344 392.019531 19.585938 382.875 22.0625 C 376.539062 25.289062 377.609375 34.09375 379.179688 39.890625 C 386.785156 58.199219 407.464844 66.546875 425.355469 71.550781 Z M 469.347656 74.703125 C 498.09375 73.476562 527.414062 67.460938 551.777344 51.511719 C 559.328125 46.144531 568.726562 38.878906 567.972656 28.726562 C 564.109375 14.964844 547.449219 16.527344 536.898438 20.785156 C 509.589844 31.398438 488.113281 52.859375 469.347656 74.703125 Z M 469.347656 74.703125 " fill-opacity="1" fill-rule="nonzero"/></svg>