<svg xmlns="http://www.w3.org/2000/svg" xmlns:xlink="http://www.w3.org/1999/xlink" preserveAspectRatio="xMidYMid meet" version="1.0" viewBox="0.0 0.0 2052.2 2052.2" zoomAndPan="magnify" style="fill: rgb(0, 0, 0);" original_string_length="2855" width="271.564482689045px" height="271.564482689045px"><g id="__id0_skstq5ul8u"><path d="M 1812.660156 1812.671875 L 1812.660156 2028.429688 L 2028.429688 2028.429688 L 2028.429688 1812.671875 Z M 1333.605469 1561.269531 L 1333.605469 1788.910156 L 1549.402344 1788.910156 L 1549.402344 1549.382812 L 1788.914062 1549.382812 L 1788.914062 1333.621094 L 1333.605469 1333.621094 Z M 1788.914062 1573.140625 L 1573.132812 1573.140625 L 1573.132812 1788.910156 L 1788.914062 1788.910156 Z M 700.71875 1949.480469 L 700.71875 1821.148438 L 499.441406 1821.148438 L 499.441406 1949.480469 Z M 724.472656 1669.082031 L 724.472656 1797.390625 L 925.75 1797.390625 L 925.75 1669.082031 Z M 1049.039062 1920.699219 L 1049.039062 1821.148438 L 949.484375 1821.148438 L 949.484375 1920.699219 Z M 1072.777344 2028.429688 L 1425.074219 2028.429688 L 1425.074219 1944.441406 L 1072.777344 1944.441406 Z M 1815.339844 700.707031 L 1943.671875 700.707031 L 1943.671875 499.429688 L 1815.339844 499.429688 Z M 1791.582031 724.449219 L 1663.253906 724.449219 L 1663.253906 925.734375 L 1791.582031 925.734375 Z M 1815.339844 1049.03125 L 1914.878906 1049.03125 L 1914.878906 949.488281 L 1815.339844 949.488281 Z M 2022.625 1425.050781 L 2022.625 1072.78125 L 1938.636719 1072.78125 L 1938.636719 1425.050781 Z M 2046.355469 1069.613281 L 2046.355469 1573.140625 L 1812.660156 1573.140625 L 1812.660156 1788.910156 L 2052.1875 1788.910156 L 2052.1875 2052.191406 L 1788.914062 2052.191406 L 1788.914062 1812.671875 L 1573.132812 1812.671875 L 1573.132812 2052.191406 L 1049.039062 2052.191406 L 1049.039062 1944.441406 L 925.75 1944.441406 L 925.75 1821.148438 L 724.472656 1821.148438 L 724.472656 1973.210938 L 475.6875 1973.210938 L 475.6875 1821.148438 L 0 1821.148438 L 0 1797.390625 L 700.71875 1797.390625 L 700.71875 1645.320312 L 949.484375 1645.320312 L 949.484375 1797.390625 L 1072.777344 1797.390625 L 1072.777344 1920.699219 L 1448.816406 1920.699219 L 1448.816406 2028.429688 L 1549.402344 2028.429688 L 1549.402344 1812.671875 L 1309.875 1812.671875 L 1309.875 1309.871094 L 1812.660156 1309.871094 L 1812.660156 1549.382812 L 2022.625 1549.382812 L 2022.625 1448.8125 L 1914.878906 1448.8125 L 1914.878906 1072.78125 L 1791.582031 1072.78125 L 1791.582031 949.488281 L 1639.519531 949.488281 L 1639.519531 700.707031 L 1791.582031 700.707031 L 1791.582031 0.00390625 L 1815.339844 0.00390625 L 1815.339844 475.695312 L 1967.40625 475.695312 L 1967.40625 724.449219 L 1815.339844 724.449219 L 1815.339844 925.734375 L 1938.636719 925.734375 L 1938.636719 1049.03125 L 2046.355469 1049.03125 L 2046.355469 1069.613281" fill-rule="evenodd" style="fill: rgb(247, 200, 94);"/></g></svg>